<svg xmlns="http://www.w3.org/2000/svg" viewBox="0 0 401 401" fill="none"><circle cx="201" cy="200" r="181" fill="#fff"/><path fill="#617496" d="M200.5.5C90 .5.5 90 .5 200.5s89.5 200 200 200 200-89.5 200-200S311 .5 200.5.5ZM132.9 301c0 6.8-5.5 12.4-12.4 12.4H89c-6.8 0-12.4-5.5-12.4-12.4V180.9c0-37-1.2-57.1 26.1-84.3 1.5-1.5 25-28.9 68.9-29l54.5.3c6.8 0 12.4 5.5 12.4 12.4v31.5c0 6.8-5.5 12.4-12.4 12.4h-26c-17.8-.1-37.6-.3-42.6 1.8-27.7 11.3-24.7 37.1-24.7 37.1h50.8c6.8 0 12.4 5.6 12.4 12.4v32.2c0 6.8-5.6 12.4-12.4 12.4h-50.8V301h.1Zm187.9-54.9c-14.2 49.4-65.7 78-115.1 63.8-33.2-9.5-57-35.9-64.7-67.2-1.4-5.8 2.9-11.4 8.9-11.5l39.1-.6c3.7-.1 7 2 8.6 5.4 1.5 3.4 6.2 9.2 6.2 9.2 12.8 14.3 34.7 16.4 50 4.9 9.6-7.2 14.7-18.1 14.9-29.1v-1.3c-.4-15.9-10.9-30.3-27-34.9-1.9-.5-3.3-2.2-3.3-4.2v-46.1c0-3.8 3.4-6.7 7.1-6.1 21.9 3.3 42.8 14.5 58 33.1 12.7 15.5 19.5 34 20.8 52.6 0 .3 0 .7.1 1v.9c.4 9.7-.7 19.9-3.6 30.1Z"/></svg>
