<svg xmlns="http://www.w3.org/2000/svg" xml:space="preserve" style="enable-background:new 0 0 775 775" viewBox="0 0 775 775" width="250" height="250"><style>.st5{fill:#fff}</style><g id="layout"><path d="M0 0h775v775H0z" style="fill:#617496"/><path d="m443 124-118-1c-94 1-144 60-148 63-58 58-56 102-56 181v258c0 15 12 27 27 27h68c14 0 26-12 26-27V451h105c15 0 27-12 27-27v-69c0-15-12-27-27-27H242s-6-55 53-79c11-5 54-4 92-4h55c15 0 27-12 27-27v-68c0-14-12-26-26-26z" class="st5"/><path d="m654 442-1-2v-2a199 199 0 0 0-169-184c-8-2-15 5-15 13v99c0 4 3 8 7 9 34 10 57 41 58 75v3a80 80 0 0 1-140 52s-10-13-13-20-10-11-18-11l-84 1c-13 0-23 12-20 25a200 200 0 0 0 395-58z" class="st5"/></g></svg>
